# xmcd
#
# Track frame offsets:
#	150
#	9624
#	21715
#	40456
#	54160
#	65422
#	73335
#	82894
#	93039
#	108012
#	130391
#	146768
#	161381
#	172868
#	184014
#	195304
#	211902
#	226886
#	241016
#	257100
#	270193
#	279318
#	295844
#	310573
#
# Disc length: 4355 seconds
#
# Revision: 1
# Processed by: cddbd v1.5.2PL0 Copyright (c) Steve Scherf et al.
# Submitted via: audiograbber 1.83.01
#
DISCID=3d110118
DTITLE=Chor a la carte - Doppelkonzert mit Gospel in Motion
DYEAR=2008
DGENRE=Vocal
TTITLE0=Schalt dein Radio ein
TTITLE1=It's alright
TTITLE2=Bohemian Rhapsody
TTITLE3=50 ways to leave your lover
TTITLE4=With imagination
TTITLE5=Oh when the Saints
TTITLE6=Rejoice forever
TTITLE7=Ride the chariote
TTITLE8=Ich traue auf Dich
TTITLE9=Shine your light
TTITLE10=You raise me up
TTITLE11=Bless the Lord
TTITLE12=Candle of hope
TTITLE13=Mitten in Ruinen
TTITLE14=This little light of mine
TTITLE15=Beacon of love
TTITLE16=I sing you sing
TTITLE17=Down in the river to pray
TTITLE18=River of dreams
TTITLE19=The Rose
TTITLE20=Go tell it on the Mountain
TTITLE21=He is always close to you
TTITLE22=The storm is passing over
TTITLE23=Beacon of love
EXTD=
EXTT0=
EXTT1=
EXTT2=
EXTT3=
EXTT4=
EXTT5=
EXTT6=
EXTT7=
EXTT8=
EXTT9=
EXTT10=
EXTT11=
EXTT12=
EXTT13=
EXTT14=
EXTT15=
EXTT16=
EXTT17=
EXTT18=
EXTT19=
EXTT20=
EXTT21=
EXTT22=
EXTT23=
PLAYORDER=
